<?xml version="1.0" encoding="UTF-8"?>
<!-- DJ App sidebar icon (docs/decisions/0029): a record, Mixxx library icon colors. Own drawing. -->
<svg xmlns="http://www.w3.org/2000/svg" width="32" height="32" viewBox="0 0 32 32">
  <defs>
    <linearGradient id="djappOrange" x1="16" y1="2" x2="16" y2="30" gradientUnits="userSpaceOnUse">
      <stop offset="0" stop-color="#ff6600"/>
      <stop offset="1" stop-color="#de5800"/>
    </linearGradient>
  </defs>
  <path fill="url(#djappOrange)" fill-rule="evenodd"
        d="M16 2a14 14 0 1 0 0 28a14 14 0 1 0 0-28z M16 7.5a8.5 8.5 0 1 1 0 17a8.5 8.5 0 1 1 0-17z"/>
  <path fill="url(#djappOrange)" fill-rule="evenodd"
        d="M16 10.5a5.5 5.5 0 1 0 0 11a5.5 5.5 0 1 0 0-11z M16 14.5a1.5 1.5 0 1 1 0 3a1.5 1.5 0 1 1 0-3z"/>
</svg>
